<svg width="178" height="160" viewBox="0 0 178 160" fill="none" xmlns="http://www.w3.org/2000/svg">
<path d="M120.84 79.1159L97.2322 102.724L120.84 126.298C127.098 132.554 135.583 136.068 144.431 136.068C153.279 136.068 161.765 132.554 168.022 126.298V126.298C171.121 123.201 173.579 119.523 175.256 115.475C176.933 111.427 177.796 107.089 177.796 102.707C177.796 98.3256 176.933 93.9871 175.256 89.9392C173.579 85.8914 171.121 82.2136 168.022 79.1159V79.1159C164.925 76.0173 161.247 73.5592 157.199 71.8822C153.151 70.2052 148.813 69.342 144.431 69.342C140.05 69.342 135.711 70.2052 131.663 71.8822C127.616 73.5592 123.938 76.0173 120.84 79.1159Z" fill="#082F49"/>
<path d="M65.2985 70.7736L88.8897 94.3648L112.481 70.7736C115.58 67.6759 118.038 63.9981 119.715 59.9503C121.392 55.9024 122.255 51.5639 122.255 47.1824C122.255 42.8009 121.392 38.4624 119.715 34.4146C118.038 30.3667 115.58 26.6889 112.481 23.5912L88.8897 0L65.2985 23.5912C62.1999 26.6889 59.7419 30.3667 58.0648 34.4146C56.3878 38.4624 55.5247 42.8009 55.5247 47.1824C55.5247 51.5639 56.3878 55.9024 58.0648 59.9503C59.7419 63.9981 62.1999 67.6759 65.2985 70.7736Z" fill="#8B5CF6"/>
<path d="M56.9563 79.1159L80.5475 102.724L56.9563 126.315C50.6987 132.57 42.213 136.084 33.3651 136.084C24.5171 136.084 16.0314 132.57 9.77385 126.315V126.315C6.67522 123.217 4.2172 119.539 2.54018 115.492C0.863161 111.444 0 107.105 0 102.724C0 98.3422 0.863161 94.0037 2.54018 89.9559C4.2172 85.908 6.67522 82.2302 9.77385 79.1325V79.1325C12.8705 76.0328 16.5474 73.5735 20.5946 71.895C24.6419 70.2166 28.9801 69.3519 33.3616 69.3503C37.7431 69.3488 42.0819 70.2104 46.1304 71.886C50.1788 73.5616 53.8575 76.0183 56.9563 79.1159Z" fill="#082F49"/>
<path d="M116.527 160L88.8896 108.433L61.252 160H116.527Z" fill="#031741"/>
</svg>
